<svg width="24" height="28" viewBox="0 0 24 28" fill="none" xmlns="http://www.w3.org/2000/svg">
<path d="M17.0442 6.88685C17.0442 7.13956 17.0259 7.39226 16.9923 7.64209C17.0076 7.54158 17.0228 7.43821 17.035 7.3377C16.9618 7.83736 16.8216 8.32267 16.6173 8.78787C16.6569 8.69598 16.6996 8.60408 16.7393 8.51219C16.535 8.96591 16.2727 9.39091 15.9526 9.78145C16.0166 9.70391 16.0806 9.62638 16.1447 9.54885C15.8276 9.93364 15.4586 10.2811 15.05 10.5798C15.1323 10.5195 15.2147 10.4592 15.297 10.3988C14.8823 10.6975 14.431 10.9473 13.9493 11.1397C14.0468 11.1024 14.1444 11.0622 14.242 11.0249C13.748 11.2173 13.2327 11.3494 12.7022 11.4183C12.8089 11.4039 12.9187 11.3896 13.0254 11.3781C12.4918 11.4441 11.9551 11.4441 11.4215 11.3781C11.5282 11.3924 11.638 11.4068 11.7447 11.4183C11.2142 11.3494 10.6989 11.2173 10.2049 11.0249C10.3025 11.0622 10.4 11.1024 10.4976 11.1397C10.0159 10.9473 9.56458 10.7004 9.14989 10.3988C9.23222 10.4592 9.31454 10.5195 9.39687 10.5798C8.98828 10.2811 8.61934 9.93364 8.30222 9.54885C8.36626 9.62638 8.43029 9.70391 8.49432 9.78145C8.17721 9.39091 7.91193 8.96591 7.70764 8.51219C7.74728 8.60408 7.78996 8.69598 7.8296 8.78787C7.62531 8.32267 7.48505 7.83736 7.41187 7.3377C7.42711 7.43821 7.44236 7.54158 7.45456 7.64209C7.38443 7.13956 7.38443 6.63415 7.45456 6.13162C7.43931 6.23212 7.42407 6.3355 7.41187 6.43601C7.48505 5.93635 7.62531 5.45104 7.8296 4.98584C7.78996 5.07773 7.74728 5.16962 7.70764 5.26152C7.91193 4.8078 8.17416 4.3828 8.49432 3.99226C8.43029 4.06979 8.36626 4.14733 8.30222 4.22486C8.61934 3.84006 8.98828 3.4926 9.39687 3.19395C9.31454 3.25425 9.23222 3.31456 9.14989 3.37486C9.56458 3.07621 10.0159 2.82638 10.4976 2.63398C10.4 2.67131 10.3025 2.71152 10.2049 2.74885C10.6989 2.55645 11.2142 2.42436 11.7447 2.35544C11.638 2.36979 11.5282 2.38415 11.4215 2.39564C11.9551 2.32959 12.4918 2.32959 13.0254 2.39564C12.9187 2.38128 12.8089 2.36692 12.7022 2.35544C13.2327 2.42436 13.748 2.55645 14.242 2.74885C14.1444 2.71152 14.0468 2.67131 13.9493 2.63398C14.431 2.82638 14.8823 3.07334 15.297 3.37486C15.2147 3.31456 15.1323 3.25425 15.05 3.19395C15.4586 3.4926 15.8276 3.84006 16.1447 4.22486C16.0806 4.14733 16.0166 4.06979 15.9526 3.99226C16.2697 4.3828 16.535 4.8078 16.7393 5.26152C16.6996 5.16962 16.6569 5.07773 16.6173 4.98584C16.8216 5.45104 16.9618 5.93635 17.035 6.43601C17.0198 6.3355 17.0045 6.23212 16.9923 6.13162C17.0259 6.38145 17.0411 6.63415 17.0442 6.88685C17.0472 7.48702 17.6022 8.06422 18.2638 8.0355C18.9225 8.00679 19.4865 7.5301 19.4835 6.88685C19.4774 5.51135 19.0383 4.10425 18.1785 2.98432C17.9467 2.6828 17.6997 2.38702 17.4253 2.11996C17.1478 1.85003 16.8429 1.61743 16.5258 1.39057C15.9495 0.977058 15.3061 0.672666 14.6231 0.437193C11.8697 -0.513313 8.54921 0.333815 6.68617 2.4703C6.43004 2.76321 6.18611 3.0676 5.97876 3.39496C5.77142 3.71946 5.60981 4.06405 5.4604 4.41439C5.17988 5.06337 5.03657 5.75256 4.97864 6.45037C4.86582 7.81726 5.24391 9.24445 6.00011 10.4161C6.72886 11.5475 7.8296 12.5181 9.11635 13.0666C9.49445 13.2274 9.88169 13.3767 10.2842 13.483C10.6836 13.5863 11.0892 13.6438 11.5008 13.6897C12.2509 13.773 13.0162 13.7156 13.7572 13.5749C16.5715 13.035 18.9286 10.7521 19.3646 8.07283C19.4286 7.68229 19.4774 7.29175 19.4774 6.89547C19.4804 6.2953 18.9133 5.7181 18.2577 5.74682C17.5991 5.76692 17.0442 6.24361 17.0442 6.88685ZM21.0904 24.8431C20.4928 24.8431 19.8951 24.8431 19.2975 24.8431C17.8735 24.8431 16.4526 24.8431 15.0287 24.8431C13.315 24.8431 11.6014 24.8431 9.88474 24.8431C8.40589 24.8431 6.92705 24.8431 5.44516 24.8431C4.753 24.8431 4.06084 24.8488 3.36868 24.8431C3.29245 24.8431 3.21622 24.8374 3.14304 24.8287C3.24976 24.8431 3.35953 24.8575 3.46625 24.8689C3.34429 24.8517 3.22842 24.8201 3.1156 24.7771C3.21317 24.8144 3.31075 24.8546 3.40832 24.8919C3.28635 24.8431 3.17353 24.7799 3.06681 24.7024C3.14914 24.7627 3.23147 24.823 3.31379 24.8833C3.22232 24.8115 3.13694 24.734 3.06376 24.6478C3.1278 24.7254 3.19183 24.8029 3.25586 24.8804C3.17353 24.7799 3.1095 24.6737 3.05462 24.5588C3.09426 24.6507 3.13694 24.7426 3.17658 24.8345C3.13085 24.7282 3.10035 24.6162 3.07901 24.5043C3.09426 24.6048 3.1095 24.7081 3.1217 24.8086C3.07291 24.4612 3.10645 24.0936 3.10645 23.7433C3.10645 23.3326 3.10645 22.9249 3.10645 22.5142C3.10645 22.207 3.12475 21.9026 3.16743 21.5982C3.15219 21.6987 3.13694 21.8021 3.12475 21.9026C3.21012 21.3139 3.37478 20.7367 3.62176 20.1882C3.58212 20.2801 3.53943 20.372 3.49979 20.4639C3.73763 19.9412 4.04254 19.4502 4.41149 18.9994C4.34746 19.0769 4.28343 19.1544 4.2194 19.232C4.58834 18.7869 5.01218 18.3848 5.48785 18.0374C5.40552 18.0977 5.32319 18.158 5.24087 18.2183C5.71958 17.8708 6.24099 17.5836 6.79594 17.3597C6.69836 17.397 6.60079 17.4372 6.50322 17.4745C7.08561 17.2448 7.69544 17.0869 8.32357 17.0064C8.21685 17.0208 8.10708 17.0352 8.00036 17.0466C8.45163 16.9921 8.89986 16.9892 9.35418 16.9892C9.91218 16.9892 10.4702 16.9892 11.0282 16.9892C12.3302 16.9892 13.6322 16.9892 14.9342 16.9892C15.4373 16.9892 15.9373 16.9863 16.4404 17.0466C16.3337 17.0323 16.2239 17.0179 16.1172 17.0064C16.7423 17.0869 17.3552 17.2419 17.9376 17.4745C17.84 17.4372 17.7424 17.397 17.6449 17.3597C18.1998 17.5836 18.7212 17.8708 19.1999 18.2183C19.1176 18.158 19.0353 18.0977 18.9529 18.0374C19.4256 18.3848 19.8524 18.784 20.2214 19.232C20.1574 19.1544 20.0933 19.0769 20.0293 18.9994C20.3982 19.4502 20.7032 19.9412 20.941 20.4639C20.9014 20.372 20.8587 20.2801 20.819 20.1882C21.063 20.7367 21.2307 21.311 21.316 21.9026C21.3008 21.8021 21.2856 21.6987 21.2734 21.5982C21.3313 22.0318 21.3343 22.4625 21.3343 22.899C21.3343 23.3728 21.3343 23.8466 21.3343 24.3205C21.3343 24.4841 21.3404 24.6478 21.3191 24.8086C21.3343 24.7081 21.3496 24.6048 21.3618 24.5043C21.3435 24.6191 21.3099 24.7282 21.2642 24.8345C21.3038 24.7426 21.3465 24.6507 21.3862 24.5588C21.3343 24.6737 21.2673 24.7799 21.1849 24.8804C21.249 24.8029 21.313 24.7254 21.377 24.6478C21.3008 24.734 21.2185 24.8144 21.127 24.8833C21.2093 24.823 21.2917 24.7627 21.374 24.7024C21.2673 24.7799 21.1544 24.8402 21.0325 24.8919C21.13 24.8546 21.2276 24.8144 21.3252 24.7771C21.2124 24.8201 21.0935 24.8488 20.9745 24.8689C21.0813 24.8546 21.191 24.8402 21.2977 24.8287C21.2307 24.8374 21.1605 24.8402 21.0904 24.8431C20.7763 24.846 20.4531 24.9695 20.2275 25.1791C20.0171 25.3772 19.8555 25.7046 19.8707 25.9918C19.9012 26.6063 20.4074 27.149 21.0904 27.1404C22.2765 27.1232 23.3193 26.3938 23.6669 25.3227C23.8042 24.8977 23.7737 24.4411 23.7737 24.0046C23.7737 23.0053 23.8072 22.0146 23.6243 21.0238C23.3559 19.5737 22.5814 18.2097 21.5203 17.1385C20.4592 16.0674 19.0322 15.2806 17.5229 14.9303C16.6569 14.7293 15.7849 14.6977 14.9006 14.6977C13.992 14.6977 13.0864 14.6977 12.1777 14.6977C11.2813 14.6977 10.3878 14.6977 9.4914 14.6977C8.5858 14.6977 7.68629 14.7379 6.80508 14.959C5.30795 15.3323 3.89923 16.1277 2.85947 17.2075C1.81056 18.2958 1.05132 19.6627 0.804335 21.1215C0.63968 22.1007 0.673221 23.0828 0.673221 24.0706C0.673221 24.5244 0.645778 24.9982 0.819581 25.4318C1.04522 25.9889 1.40502 26.4282 1.93252 26.7585C2.34416 27.014 2.86557 27.1375 3.35343 27.1433C3.59127 27.1461 3.8291 27.1433 4.06694 27.1433C4.67677 27.1433 5.28355 27.1433 5.89339 27.1433C6.75935 27.1433 7.62226 27.1433 8.48822 27.1433C9.49445 27.1433 10.5007 27.1433 11.5069 27.1433C12.5406 27.1433 13.5712 27.1433 14.6048 27.1433C15.5501 27.1433 16.4923 27.1433 17.4375 27.1433C18.1785 27.1433 18.9194 27.1433 19.6573 27.1433C20.0811 27.1433 20.505 27.1433 20.9288 27.1433C20.9837 27.1433 21.0386 27.1433 21.0935 27.1433C21.7307 27.1433 22.3436 26.6149 22.3131 25.9946C22.2826 25.3686 21.7765 24.8431 21.0904 24.8431Z" fill="#555"/>
</svg>
